<?xml version="1.0" encoding="UTF-8" standalone="no"?><!DOCTYPE svg PUBLIC "-//W3C//DTD SVG 1.1//EN" "http://www.w3.org/Graphics/SVG/1.1/DTD/svg11.dtd"><svg width="100%" height="100%" viewBox="0 0 53 53" version="1.1" xmlns="http://www.w3.org/2000/svg" xmlns:xlink="http://www.w3.org/1999/xlink" xml:space="preserve" xmlns:serif="http://www.serif.com/" style="fill-rule:evenodd;clip-rule:evenodd;stroke-linejoin:round;stroke-miterlimit:2;"><g id="Player"></g><g id="Player1" serif:id="Player"></g><g id="Orb"></g><g id="Tentacle"></g><g id="board"></g><g id="Smoke"></g><g id="EyeMonster"></g><g id="Bullet"><circle cx="25.652" cy="26.874" r="20.783" style="fill:#cf1749;"/><path d="M25.652,6.091c11.47,-0 20.783,9.312 20.783,20.783c-0,11.47 -9.313,20.782 -20.783,20.782c-11.47,0 -20.783,-9.312 -20.783,-20.782c0,-11.471 9.313,-20.783 20.783,-20.783Zm0,4c9.263,-0 16.783,7.52 16.783,16.783c-0,9.262 -7.52,16.782 -16.783,16.782c-9.262,0 -16.783,-7.52 -16.783,-16.782c0,-9.263 7.521,-16.783 16.783,-16.783Z" style="fill:#990c4e;"/><circle cx="25.652" cy="26.874" r="11.287" style="fill:#fe364e;"/></g></svg>