<?xml version="1.0" encoding="UTF-8" standalone="no"?><!DOCTYPE svg PUBLIC "-//W3C//DTD SVG 1.1//EN" "http://www.w3.org/Graphics/SVG/1.1/DTD/svg11.dtd"><svg width="100%" height="100%" viewBox="0 0 106 106" version="1.1" xmlns="http://www.w3.org/2000/svg" xmlns:xlink="http://www.w3.org/1999/xlink" xml:space="preserve" xmlns:serif="http://www.serif.com/" style="fill-rule:evenodd;clip-rule:evenodd;stroke-linecap:round;stroke-linejoin:round;stroke-miterlimit:1.5;"><g id="Player"></g><g id="Player1" serif:id="Player"></g><g id="Orb"><circle cx="53.227" cy="53.634" r="49.634" style="fill:#fb298d;"/><path d="M31.585,78.403c-1.598,-4.44 -3.635,-8.711 -6.079,-12.749c-2.776,-4.728 -4.409,-10.198 -4.409,-16.038c0,-17.339 14.397,-31.416 32.13,-31.416c17.732,0 32.129,14.077 32.129,31.416c0,5.84 -1.633,11.31 -4.477,15.997c-2.447,4.042 -4.485,8.318 -6.085,12.763c-1.833,5.332 -6.164,9.488 -11.828,10.691c0.769,-1.938 1.36,-4.268 1.678,-6.831c0.089,-0.718 -0.187,-1.432 -0.736,-1.905c-0.548,-0.473 -1.297,-0.642 -1.996,-0.45c-0.004,-0.012 -0.005,-0.012 -0.005,-0.012c0.407,4.022 -2.082,7.743 -5.887,8.551c0.364,-0.918 0.642,-2.028 0.783,-3.25c0.139,-1.029 -0.175,-2.069 -0.86,-2.851c-0.685,-0.782 -1.675,-1.23 -2.716,-1.23l-0.001,-0.058c-1.057,-0 -2.064,0.456 -2.76,1.25c-0.696,0.795 -1.015,1.851 -0.873,2.897c0.199,1.214 0.476,2.324 0.84,3.242c-3.805,-0.808 -6.294,-4.529 -5.887,-8.551c-0,0 -0.001,0 -0.001,-0c-0.703,-0.193 -1.456,-0.024 -2.008,0.452c-0.552,0.476 -0.829,1.195 -0.74,1.917c0.33,2.561 0.922,4.891 1.69,6.829c-5.664,-1.203 -9.995,-5.359 -11.902,-10.664Zm-4.005,-40.039c9.592,-0.728 13.347,14.071 21.804,15.032c-1.718,5.011 -6.381,10.338 -11.982,10.338c-7.046,0 -12.866,-7.428 -12.866,-14.458c-0,-3.396 0.871,-8.627 3.044,-10.912Zm51.294,0c-9.592,-0.728 -13.348,14.071 -21.804,15.032c1.717,5.011 6.38,10.338 11.981,10.338c7.046,0 12.866,-7.428 12.866,-14.458c0,-3.396 -0.871,-8.627 -3.043,-10.912Z" style="fill:#fff;stroke:#000;stroke-width:2px;"/></g><path id="particle" d="M53.227,110.54c27.393,0 49.633,22.24 49.633,49.634c0,27.393 -22.24,49.634 -49.633,49.634c-27.394,-0 -49.634,-22.241 -49.634,-49.634c-0,-27.394 22.24,-49.634 49.634,-49.634Zm-0,10c21.874,0 39.633,17.759 39.633,39.634c0,21.874 -17.759,39.634 -39.633,39.634c-21.875,-0 -39.634,-17.76 -39.634,-39.634c-0,-21.875 17.759,-39.634 39.634,-39.634Z" style="fill:#fb298d;"/><g id="Tentacle"></g><g id="board"></g></svg>