<?xml version="1.0" encoding="UTF-8" standalone="no"?><!DOCTYPE svg PUBLIC "-//W3C//DTD SVG 1.1//EN" "http://www.w3.org/Graphics/SVG/1.1/DTD/svg11.dtd"><svg width="100%" height="100%" viewBox="0 0 106 114" version="1.1" xmlns="http://www.w3.org/2000/svg" xmlns:xlink="http://www.w3.org/1999/xlink" xml:space="preserve" xmlns:serif="http://www.serif.com/" style="fill-rule:evenodd;clip-rule:evenodd;stroke-linejoin:round;stroke-miterlimit:2;"><g id="Player"></g><g id="Player1" serif:id="Player"></g><g id="Orb"></g><path id="particle" d="M53.227,-101.46c27.393,0 49.633,22.24 49.633,49.634c0,27.393 -22.24,49.634 -49.633,49.634c-27.394,-0 -49.634,-22.241 -49.634,-49.634c-0,-27.394 22.24,-49.634 49.634,-49.634Zm-0,10c21.874,0 39.633,17.759 39.633,39.634c0,21.874 -17.759,39.634 -39.633,39.634c-21.875,-0 -39.634,-17.76 -39.634,-39.634c-0,-21.875 17.759,-39.634 39.634,-39.634Z" style="fill:#fb298d;"/><g id="Tentacle"></g><g id="board"></g><g id="Smoke"><path d="M34.543,23.219c1.134,-2.295 3.706,-4.565 6.996,-5.647c3.29,-1.082 6.708,-0.782 8.983,0.391c2.219,-1.567 5.612,-2.465 8.935,-1.964c3.322,0.502 5.978,2.314 7.202,4.401c2.709,-0.42 6.014,0.295 8.479,2.246c2.464,1.952 3.647,4.79 3.493,7.232c2.472,0.839 4.804,2.976 5.75,5.854c0.947,2.877 0.339,5.981 -1.153,8.124c1.574,1.874 2.307,4.86 1.482,7.893c-0.826,3.033 -3.061,5.571 -5.49,6.84c0.254,2.407 -0.808,5.442 -3.184,7.818c-2.376,2.376 -5.64,3.667 -8.356,3.723c-1.134,2.294 -3.707,4.565 -6.997,5.647c-3.29,1.082 -6.708,0.781 -8.983,-0.392c-2.218,1.568 -5.612,2.466 -8.934,1.964c-3.323,-0.502 -5.979,-2.314 -7.203,-4.401c-2.708,0.42 -6.014,-0.295 -8.479,-2.246c-2.464,-1.951 -3.647,-4.789 -3.492,-7.232c-2.473,-0.839 -4.804,-2.975 -5.751,-5.853c-0.946,-2.878 -0.338,-5.982 1.153,-8.124c-1.574,-1.874 -2.307,-4.86 -1.481,-7.894c0.825,-3.033 3.06,-5.57 5.49,-6.84c-0.254,-2.406 0.808,-5.441 3.184,-7.817c2.376,-2.376 5.64,-3.668 8.356,-3.723Z" style="fill:#797691;fill-opacity:0.5;"/><path d="M36.286,31.76c1.086,-2.609 3.674,-5.129 7.061,-6.243c3.387,-1.114 6.966,-0.622 9.389,0.833c2.248,-1.721 5.751,-2.618 9.238,-1.897c3.488,0.722 6.336,2.932 7.701,5.401c2.808,-0.373 6.287,0.595 8.941,2.959c2.654,2.363 4.008,5.699 3.95,8.521c2.615,1.076 5.137,3.648 6.246,7.021c1.11,3.372 0.607,6.94 -0.859,9.358c1.721,2.236 2.612,5.724 1.879,9.202c-0.733,3.477 -2.958,6.321 -5.439,7.688c0.367,2.797 -0.613,6.266 -2.992,8.917c-2.378,2.651 -5.729,4.009 -8.56,3.958c-1.087,2.609 -3.675,5.129 -7.061,6.243c-3.387,1.114 -6.966,0.622 -9.389,-0.832c-2.248,1.721 -5.751,2.617 -9.239,1.896c-3.487,-0.722 -6.335,-2.932 -7.701,-5.401c-2.808,0.373 -6.286,-0.595 -8.94,-2.958c-2.654,-2.364 -4.008,-5.7 -3.95,-8.521c-2.615,-1.076 -5.138,-3.649 -6.247,-7.021c-1.109,-3.372 -0.606,-6.94 0.86,-9.359c-1.722,-2.236 -2.612,-5.724 -1.88,-9.202c0.733,-3.477 2.958,-6.321 5.439,-7.688c-0.366,-2.797 0.614,-6.266 2.992,-8.917c2.379,-2.651 5.73,-4.008 8.561,-3.958Z" style="fill:#797691;fill-opacity:0.5;"/><path d="M59.935,29.025c1.456,-2.199 4.014,-3.83 6.824,-3.83c2.81,-0 5.368,1.631 6.824,3.83c2.107,-0.959 4.95,-0.71 7.383,1.116c2.434,1.825 4.021,4.899 4.436,7.749c2.194,0.538 4.56,2.601 5.965,5.763c1.405,3.161 1.597,6.855 0.859,9.592c1.692,1.891 2.948,5.215 2.948,8.865c-0,3.651 -1.256,6.974 -2.948,8.866c0.738,2.737 0.546,6.431 -0.859,9.592c-1.405,3.161 -3.771,5.224 -5.965,5.763c-0.415,2.85 -2.002,5.924 -4.436,7.749c-2.433,1.825 -5.276,2.075 -7.383,1.116c-1.456,2.199 -4.014,3.83 -6.824,3.83c-2.81,-0 -5.368,-1.631 -6.824,-3.83c-2.107,0.959 -4.95,0.709 -7.384,-1.116c-2.433,-1.825 -4.021,-4.899 -4.435,-7.749c-2.194,-0.539 -4.56,-2.602 -5.965,-5.763c-1.405,-3.161 -1.597,-6.855 -0.859,-9.592c-1.693,-1.892 -2.948,-5.215 -2.948,-8.866c0,-3.65 1.255,-6.974 2.948,-8.865c-0.738,-2.737 -0.546,-6.431 0.859,-9.592c1.405,-3.162 3.771,-5.225 5.965,-5.763c0.414,-2.85 2.002,-5.924 4.435,-7.749c2.434,-1.826 5.277,-2.075 7.384,-1.116Z" style="fill:#797691;fill-opacity:0.5;"/><path d="M36.477,46.717c1.625,-1.564 4.479,-2.724 7.614,-2.724c3.135,-0 5.989,1.16 7.613,2.724c2.351,-0.682 5.523,-0.505 8.238,0.793c2.715,1.299 4.487,3.485 4.949,5.513c2.448,0.382 5.088,1.85 6.655,4.098c1.568,2.249 1.782,4.876 0.958,6.823c1.889,1.346 3.29,3.71 3.29,6.306c-0,2.597 -1.401,4.961 -3.29,6.306c0.824,1.947 0.61,4.574 -0.958,6.823c-1.567,2.248 -4.207,3.716 -6.655,4.099c-0.462,2.027 -2.234,4.214 -4.949,5.512c-2.715,1.298 -5.887,1.476 -8.238,0.793c-1.624,1.565 -4.478,2.725 -7.613,2.725c-3.135,-0 -5.989,-1.16 -7.614,-2.725c-2.35,0.683 -5.522,0.505 -8.237,-0.793c-2.715,-1.298 -4.487,-3.485 -4.949,-5.512c-2.448,-0.383 -5.088,-1.851 -6.655,-4.099c-1.568,-2.249 -1.782,-4.876 -0.959,-6.823c-1.888,-1.345 -3.289,-3.709 -3.289,-6.306c0,-2.596 1.401,-4.96 3.289,-6.306c-0.823,-1.947 -0.609,-4.574 0.959,-6.823c1.567,-2.248 4.207,-3.716 6.655,-4.098c0.462,-2.028 2.234,-4.214 4.949,-5.513c2.715,-1.298 5.887,-1.475 8.237,-0.793Z" style="fill:#797691;fill-opacity:0.5;"/></g></svg>