<?xml version="1.0" encoding="UTF-8" standalone="no"?><!DOCTYPE svg PUBLIC "-//W3C//DTD SVG 1.1//EN" "http://www.w3.org/Graphics/SVG/1.1/DTD/svg11.dtd"><svg width="100%" height="100%" viewBox="0 0 93 265" version="1.1" xmlns="http://www.w3.org/2000/svg" xmlns:xlink="http://www.w3.org/1999/xlink" xml:space="preserve" xmlns:serif="http://www.serif.com/" style="fill-rule:evenodd;clip-rule:evenodd;stroke-linecap:round;stroke-linejoin:round;stroke-miterlimit:1.5;"><g id="Player"></g><g id="Player1" serif:id="Player"></g><g id="Orb"></g><g id="Tentacle"><g><path d="M58.316,29.028c0,0 -3.703,2.558 -5.25,3.626c-0.409,0.283 -0.628,0.769 -0.569,1.264c0.307,2.541 1.253,10.395 1.57,13.026c0.064,0.528 0.434,0.969 0.943,1.123c1.763,0.533 5.696,1.722 5.696,1.722l-2.39,-20.761Z" style="fill:#2a0b6c;stroke:#000;stroke-width:2px;"/><path d="M10.91,166.541c-0,0 -3.932,2.191 -5.574,3.106c-0.435,0.242 -0.7,0.705 -0.688,1.203c0.061,2.559 0.25,10.467 0.313,13.117c0.013,0.531 0.339,1.005 0.831,1.208c1.704,0.699 5.504,2.26 5.504,2.26l-0.386,-20.894Z" style="fill:#2a0b6c;stroke:#000;stroke-width:2px;"/><path d="M9.094,193.721c-0,0 -3.521,2.805 -4.991,3.976c-0.389,0.31 -0.574,0.81 -0.481,1.299c0.479,2.515 1.959,10.286 2.455,12.889c0.1,0.523 0.499,0.937 1.017,1.056c1.796,0.412 5.8,1.33 5.8,1.33l-3.8,-20.55Z" style="fill:#2a0b6c;stroke:#000;stroke-width:2px;"/><path d="M16.124,220.629c-0,-0 -2.913,3.431 -4.13,4.864c-0.322,0.379 -0.407,0.905 -0.222,1.367c0.955,2.376 3.907,9.715 4.896,12.173c0.198,0.494 0.67,0.823 1.202,0.84c1.841,0.058 5.947,0.186 5.947,0.186l-7.693,-19.43Z" style="fill:#2a0b6c;stroke:#000;stroke-width:2px;"/><path d="M19.454,138.01c0,-0 -4.433,0.776 -6.285,1.1c-0.49,0.085 -0.892,0.436 -1.045,0.91c-0.784,2.437 -3.206,9.967 -4.017,12.49c-0.163,0.506 -0.011,1.061 0.387,1.414c1.379,1.221 4.455,3.945 4.455,3.945l6.505,-19.859Z" style="fill:#2a0b6c;stroke:#000;stroke-width:2px;"/><path d="M53.577,89.851c0,0 -4.471,-0.514 -6.339,-0.729c-0.494,-0.057 -0.979,0.165 -1.26,0.576c-1.443,2.114 -5.903,8.647 -7.398,10.836c-0.3,0.439 -0.311,1.015 -0.03,1.466c0.976,1.562 3.152,5.047 3.152,5.047l11.875,-17.196Z" style="fill:#2a0b6c;stroke:#000;stroke-width:2px;"/><path d="M35.986,115.404c-0,0 -4.472,-0.514 -6.339,-0.729c-0.494,-0.057 -0.98,0.165 -1.26,0.576c-1.444,2.114 -5.904,8.647 -7.398,10.836c-0.3,0.439 -0.312,1.015 -0.03,1.466c0.976,1.562 3.152,5.047 3.152,5.047l11.875,-17.196Z" style="fill:#2a0b6c;stroke:#000;stroke-width:2px;"/><path d="M60.982,60.509c0,-0 -4.331,1.225 -6.139,1.736c-0.479,0.136 -0.844,0.525 -0.947,1.012c-0.531,2.505 -2.17,10.243 -2.72,12.836c-0.11,0.52 0.098,1.057 0.53,1.367c1.497,1.074 4.835,3.469 4.835,3.469l4.441,-20.42Z" style="fill:#2a0b6c;stroke:#000;stroke-width:2px;"/></g><path d="M81.605,206.822c-9.034,-10.794 -16.85,-20.7 -18.534,-32.665c-1.706,-12.129 -0.661,-24.828 6.529,-38.375c0.154,-0.218 0.304,-0.44 0.449,-0.664c11.785,-24.644 16.558,-47.354 13.205,-69.886c-2.586,-17.376 -8.653,-34.001 -19.43,-50.111c-0.728,-1.088 -1.267,-2.293 -2.223,-3.21c-2.777,-2.664 -5.238,-7.485 -8.6,-5.403c-3.666,2.27 -0.799,6.197 -0.294,9.926c0.167,1.229 0.72,2.322 1.087,3.491c4.96,15.822 6.623,30.786 4.907,45.715c-1.925,16.736 -9.697,32.002 -22.747,47.421c-17.699,19.233 -24.783,40.483 -27.181,61.857c-2.527,22.515 4.254,44.847 15.625,68.664c10.144,15.787 31.197,20.368 46.984,10.224c15.787,-10.145 20.367,-31.198 10.223,-46.984Z" style="fill:#6d04a9;"/><clipPath id="_clip1"><path d="M81.605,206.822c-9.034,-10.794 -16.85,-20.7 -18.534,-32.665c-1.706,-12.129 -0.661,-24.828 6.529,-38.375c0.154,-0.218 0.304,-0.44 0.449,-0.664c11.785,-24.644 16.558,-47.354 13.205,-69.886c-2.586,-17.376 -8.653,-34.001 -19.43,-50.111c-0.728,-1.088 -1.267,-2.293 -2.223,-3.21c-2.777,-2.664 -5.238,-7.485 -8.6,-5.403c-3.666,2.27 -0.799,6.197 -0.294,9.926c0.167,1.229 0.72,2.322 1.087,3.491c4.96,15.822 6.623,30.786 4.907,45.715c-1.925,16.736 -9.697,32.002 -22.747,47.421c-17.699,19.233 -24.783,40.483 -27.181,61.857c-2.527,22.515 4.254,44.847 15.625,68.664c10.144,15.787 31.197,20.368 46.984,10.224c15.787,-10.145 20.367,-31.198 10.223,-46.984Z"/></clipPath><g clip-path="url(#_clip1)"><path d="M35.138,214.732c-7.369,-10.794 -8.865,-24.948 -10.238,-36.913c-1.392,-12.129 1.036,-25.016 6.9,-38.563c0.125,-0.218 0.247,-0.44 0.366,-0.664c12.3,-23.937 28.204,-43.802 31.553,-67.616c2.422,-17.217 4.29,-29.784 -2.975,-51.014c-0.401,-1.173 -2.373,-7.223 -3.153,-8.14c-2.265,-2.664 -2.798,-6.042 -5.54,-3.96c-2.991,2.27 -0.653,6.197 -0.24,9.927c0.135,1.228 0.587,2.321 0.886,3.491c4.045,15.821 -27.421,33.417 -28.821,48.346c-1.569,16.736 -8.874,31.49 -19.518,46.909c-14.436,19.233 -20.214,40.483 -22.17,61.857c-2.061,22.515 3.47,44.847 12.744,68.664c8.274,15.787 24.145,27.435 38.094,18.826c27.914,-17.226 10.386,-35.363 2.112,-51.15Z" style="fill:#2a0b6c;"/></g><path d="M81.605,206.822c-9.034,-10.794 -16.85,-20.7 -18.534,-32.665c-1.706,-12.129 -0.661,-24.828 6.529,-38.375c0.154,-0.218 0.304,-0.44 0.449,-0.664c11.785,-24.644 16.558,-47.354 13.205,-69.886c-2.586,-17.376 -8.653,-34.001 -19.43,-50.111c-0.728,-1.088 -1.267,-2.293 -2.223,-3.21c-2.777,-2.664 -5.238,-7.485 -8.6,-5.403c-3.666,2.27 -0.799,6.197 -0.294,9.926c0.167,1.229 0.72,2.322 1.087,3.491c4.96,15.822 6.623,30.786 4.907,45.715c-1.925,16.736 -9.697,32.002 -22.747,47.421c-17.699,19.233 -24.783,40.483 -27.181,61.857c-2.527,22.515 4.254,44.847 15.625,68.664c10.144,15.787 31.197,20.368 46.984,10.224c15.787,-10.145 20.367,-31.198 10.223,-46.984Z" style="fill:none;stroke:#000;stroke-width:2px;stroke-linecap:butt;stroke-miterlimit:2;"/></g><g id="board"></g></svg>