<?xml version="1.0" encoding="UTF-8" standalone="no"?><!DOCTYPE svg PUBLIC "-//W3C//DTD SVG 1.1//EN" "http://www.w3.org/Graphics/SVG/1.1/DTD/svg11.dtd"><svg width="100%" height="100%" viewBox="0 0 44 63" version="1.1" xmlns="http://www.w3.org/2000/svg" xmlns:xlink="http://www.w3.org/1999/xlink" xml:space="preserve" xmlns:serif="http://www.serif.com/" style="fill-rule:evenodd;clip-rule:evenodd;stroke-linecap:round;stroke-linejoin:round;stroke-miterlimit:1.5;"><g id="Player"></g><g id="Player1" serif:id="Player"><g id="Skateboard"><g id="Wheel"><path d="M28.476,-29.553c6.035,-5.37 15.294,-4.83 20.664,1.205c5.37,6.035 4.83,15.294 -1.205,20.664c-6.035,5.37 -15.294,4.83 -20.664,-1.205c-5.37,-6.035 -4.83,-15.294 1.205,-20.664Z" style="fill:#fb298d;stroke:#000;stroke-width:2px;"/></g><g id="Wheel1" serif:id="Wheel"></g></g><g id="torso"></g><g id="arm_left"><g id="hand_left_fist"></g><g><path id="arm_base_left" d="M22.585,20.002l-14.461,29.825c1.544,7.008 6.045,9.851 13.755,8.171c-0,-0 4.932,-12.918 7.302,-17.093c2.369,-4.176 8.781,-14.436 8.781,-14.436" style="fill:#fbb886;stroke:#000;stroke-width:2px;"/><path id="sleeve_left" d="M37.962,11.3c0,-0 -6.745,-6.515 -11.47,-3.511c-4.724,3.004 -6.148,12.213 -6.148,12.213c0,0 -0.68,3.352 8.431,5.936c9.111,2.584 12.298,1.481 12.298,1.481" style="fill:#af2604;stroke:#000;stroke-width:2px;"/></g><path id="hand_left_open" d="M66.694,46.66c-0,-0 -2.318,1.017 -4.114,1.805c-1.32,0.579 -2.35,1.667 -2.857,3.016c-0.709,1.885 -1.713,4.557 -2.238,5.951c-0.233,0.621 -0.563,1.199 -0.979,1.715c-1.468,1.811 -5.192,6.356 -7.983,9.284c-4.14,4.344 -4.658,9.639 -0.989,12.446c4.498,3.442 16.571,-8.498 16.65,-10.294c-0.072,1.439 -14.203,17.997 -5.782,21.046c6.216,2.251 15.675,-15.486 15.675,-15.486c0.17,0.219 -12.172,19.67 -2.899,21.811c10.962,2.53 15.239,-22.283 15.239,-22.283c-0,-0 7.695,5.676 10.752,0.941c3.057,-4.736 1.759,-8.127 0.771,-9.362c-0.988,-1.235 -6.305,-1.816 -8.155,-5.552c-1.407,-2.84 -0.654,-5.429 -2.571,-8.144c-1.917,-2.715 -4.826,-3.276 -4.826,-3.276" style="fill:#fbb886;stroke:#000;stroke-width:2px;"/></g><g id="head"></g></g><g id="Orb"></g><g id="Tentacle"></g><g id="board"></g></svg>