<?xml version="1.0" encoding="UTF-8" standalone="no"?><!DOCTYPE svg PUBLIC "-//W3C//DTD SVG 1.1//EN" "http://www.w3.org/Graphics/SVG/1.1/DTD/svg11.dtd"><svg width="100%" height="100%" viewBox="0 0 219 109" version="1.1" xmlns="http://www.w3.org/2000/svg" xmlns:xlink="http://www.w3.org/1999/xlink" xml:space="preserve" xmlns:serif="http://www.serif.com/" style="fill-rule:evenodd;clip-rule:evenodd;stroke-linecap:round;stroke-linejoin:round;stroke-miterlimit:1.5;"><g id="Player"></g><g id="Player1" serif:id="Player"><g id="Skateboard"><g id="Wheel"><path d="M36.288,79.714c0.059,-3.961 1.714,-7.884 4.903,-10.721c6.035,-5.37 15.294,-4.83 20.664,1.205c2.128,2.391 3.328,5.289 3.625,8.252l0,-0l0,0.001c0.071,0.708 0.091,1.421 0.059,2.13l0.287,10.411l-5.689,0.305c-4.999,4.058 -11.959,4.293 -17.169,0.921l-6.236,0.334l-0.394,-11.384c-0.04,-0.484 -0.057,-0.969 -0.05,-1.453l0,-0.001l0,0Z" style="fill:#dc0078;stroke:#000;stroke-width:2px;"/><path d="M41.476,79.447c6.035,-5.37 15.294,-4.83 20.664,1.205c5.37,6.035 4.83,15.294 -1.205,20.664c-6.035,5.37 -15.294,4.83 -20.664,-1.205c-5.37,-6.035 -4.83,-15.294 1.205,-20.664Z" style="fill:#fb298d;stroke:#000;stroke-width:2px;"/><path d="M46.41,84.993c2.975,-2.647 7.538,-2.381 10.184,0.594c2.647,2.974 2.381,7.537 -0.593,10.184c-2.975,2.646 -7.538,2.38 -10.184,-0.594c-2.647,-2.974 -2.381,-7.538 0.593,-10.184Z"/></g><g id="Wheel1" serif:id="Wheel"><path d="M166.41,79.293c0.173,-3.957 1.939,-7.832 5.208,-10.577c6.186,-5.194 15.426,-4.389 20.621,1.797c2.058,2.452 3.175,5.383 3.387,8.353l0,-0l0,0c0.051,0.711 0.05,1.424 -0.002,2.132l-0.011,10.415l-5.696,0.142c-5.113,3.913 -12.077,3.948 -17.189,0.428l-6.243,0.155l-0.067,-11.39c-0.026,-0.485 -0.029,-0.97 -0.008,-1.454l-0,-0.001l-0,0Z" style="fill:#dc0078;stroke:#000;stroke-width:2px;"/><path d="M171.603,79.175c6.187,-5.195 15.426,-4.39 20.621,1.797c5.195,6.186 4.39,15.426 -1.796,20.62c-6.187,5.195 -15.426,4.39 -20.621,-1.796c-5.195,-6.186 -4.39,-15.426 1.796,-20.621Z" style="fill:#fb298d;stroke:#000;stroke-width:2px;"/><path d="M176.377,84.86c3.049,-2.561 7.602,-2.164 10.163,0.885c2.56,3.049 2.163,7.603 -0.886,10.163c-3.049,2.56 -7.602,2.163 -10.163,-0.886c-2.56,-3.048 -2.163,-7.602 0.886,-10.162Z"/></g><path d="M7.854,54.256l208.169,-4.16c0.005,2.768 6.471,23.269 -20.748,28.031l-162.716,2.362l-24.705,-18.116c0.059,0.214 -0,-8.117 -0,-8.117Z" style="fill:#6e6e6e;stroke:#000;stroke-width:2px;"/><path d="M42.86,19.679l130.802,2.068c41.647,-0.183 59.386,42.582 21.613,48.38l-162.716,2.362l-24.705,-18.116c1.152,-17.763 7.053,-36.369 16.942,-48.373l18.064,13.679Z" style="fill:#373737;stroke:#000;stroke-width:2px;"/><path d="M141.161,33.006c4.44,-0.99 8.711,-2.251 12.749,-3.765c4.728,-1.719 10.198,-2.731 16.038,-2.731c17.339,0 31.415,8.917 31.415,19.9c0,10.983 -14.076,19.9 -31.415,19.9c-5.84,-0 -11.31,-1.012 -15.997,-2.773c-4.043,-1.516 -8.318,-2.778 -12.763,-3.769c-5.333,-1.135 -9.488,-3.818 -10.691,-7.326c1.938,0.476 4.268,0.843 6.831,1.04c0.718,0.054 1.432,-0.117 1.905,-0.456c0.473,-0.34 0.642,-0.804 0.45,-1.237c0.012,-0.002 0.012,-0.002 0.011,-0.003c-4.021,0.252 -7.742,-1.289 -8.55,-3.646c0.918,0.226 2.028,0.398 3.25,0.485c1.029,0.086 2.069,-0.108 2.85,-0.532c0.782,-0.425 1.231,-1.038 1.231,-1.683l0.057,-0c0.001,-0.655 -0.455,-1.279 -1.249,-1.71c-0.795,-0.431 -1.851,-0.628 -2.897,-0.54c-1.214,0.123 -2.324,0.294 -3.242,0.52c0.808,-2.357 4.529,-3.898 8.55,-3.646c0.001,-0 0.001,-0.001 0.001,-0.001c0.193,-0.436 0.024,-0.902 -0.452,-1.244c-0.476,-0.341 -1.195,-0.513 -1.917,-0.458c-2.561,0.204 -4.891,0.571 -6.829,1.047c1.203,-3.508 5.358,-6.191 10.664,-7.372Zm40.038,-2.48c0.728,5.94 -14.07,8.266 -15.031,13.504c-5.011,-1.064 -10.338,-3.952 -10.338,-7.421c-0,-4.364 7.428,-7.969 14.458,-7.969c3.396,0 8.627,0.54 10.911,1.886Zm0,31.769c0.728,-5.941 -14.07,-8.267 -15.031,-13.505c-5.011,1.064 -10.338,3.952 -10.338,7.421c-0,4.364 7.428,7.969 14.458,7.969c3.396,-0 8.627,-0.54 10.911,-1.885Z" style="fill:#fb298d;"/></g><g id="torso"></g><g id="arm_left"><g id="hand_left_fist"><path id="hand_left_fist1" serif:id="hand_left_fist" d="M140.775,123.447c-0,0 -1.265,2.192 -2.245,3.891c-0.721,1.249 -0.907,2.735 -0.516,4.122c0.58,2.062 1.418,5.041 1.795,6.379c0.13,0.463 0.206,0.939 0.226,1.419c0.112,2.229 0.782,8.859 4.624,8.933c5.663,0.109 7.768,-1.921 7.511,-3.748c0.241,1.836 -1.174,5.636 7.429,3.145c4.735,-1.371 4.566,-5.101 4.566,-5.101c0.493,0.495 1.593,4.365 6.548,2.025c10.173,-4.804 5.545,-13.394 5.545,-13.394c0,-0 -3.888,-9.429 -7.592,-11.343c-2.815,-1.455 -4.235,0.01 -7.388,-1.042c-3.153,-1.052 -5.715,-1.666 -5.715,-1.666" style="fill:#fbb886;"/><g id="hand_left_fist2" serif:id="hand_left_fist"></g><path id="hand_left_fist3" serif:id="hand_left_fist" d="M140.775,123.447c-0,0 -1.265,2.192 -2.245,3.891c-0.721,1.249 -0.907,2.735 -0.516,4.122c0.58,2.062 1.418,5.041 1.795,6.379c0.13,0.463 0.206,0.939 0.226,1.419c0.112,2.229 0.782,8.859 4.624,8.933c5.663,0.109 7.768,-1.921 7.511,-3.748c0.241,1.836 -1.174,5.636 7.429,3.145c4.735,-1.371 4.566,-5.101 4.566,-5.101c0.493,0.495 1.593,4.365 6.548,2.025c10.173,-4.804 5.545,-13.394 5.545,-13.394c0,-0 -3.888,-9.429 -7.592,-11.343c-2.815,-1.455 -4.235,0.01 -7.388,-1.042c-3.153,-1.052 -5.715,-1.666 -5.715,-1.666" style="fill:none;stroke:#000;stroke-width:2px;"/></g><path id="hand_left_fist4" serif:id="hand_left_fist" d="M107.394,115.998c0,-0 -2.317,1.017 -4.113,1.805c-1.32,0.579 -2.35,1.667 -2.857,3.016c-0.754,2.005 -1.843,4.901 -2.333,6.202c-0.169,0.45 -0.39,0.879 -0.658,1.277c-1.23,1.863 -4.617,7.602 -1.566,9.937c4.499,3.442 8.939,3.482 9.017,1.686c-0.072,1.439 -5.043,3.628 3.378,6.677c6.215,2.251 6.516,-1.117 6.516,-1.117c0.169,0.219 -5.012,3.081 4.26,5.222c10.962,2.531 12.402,-7.507 12.402,-7.507c0,-0 2.452,-9.9 0.602,-13.636c-1.407,-2.84 -3.418,-2.501 -5.336,-5.216c-1.917,-2.715 -3.618,-4.728 -3.618,-4.728" style="fill:#fbb886;stroke:#000;stroke-width:2px;"/></g><g id="head"></g></g><g id="Orb"></g><g id="Tentacle"></g><g id="board"></g></svg>