<?xml version="1.0" encoding="UTF-8" standalone="no"?><!DOCTYPE svg PUBLIC "-//W3C//DTD SVG 1.1//EN" "http://www.w3.org/Graphics/SVG/1.1/DTD/svg11.dtd"><svg width="100%" height="100%" viewBox="0 0 95 222" version="1.1" xmlns="http://www.w3.org/2000/svg" xmlns:xlink="http://www.w3.org/1999/xlink" xml:space="preserve" xmlns:serif="http://www.serif.com/" style="fill-rule:evenodd;clip-rule:evenodd;stroke-linecap:round;stroke-linejoin:round;stroke-miterlimit:1.5;"><g id="Player"></g><g id="Player1" serif:id="Player"></g><g id="Orb"></g><path id="particle" d="M-52.773,110.54c27.393,0 49.633,22.24 49.633,49.634c0,27.393 -22.24,49.634 -49.633,49.634c-27.394,-0 -49.634,-22.241 -49.634,-49.634c-0,-27.394 22.24,-49.634 49.634,-49.634Zm-0,10c21.874,0 39.633,17.759 39.633,39.634c0,21.874 -17.759,39.634 -39.633,39.634c-21.875,-0 -39.634,-17.76 -39.634,-39.634c-0,-21.875 17.759,-39.634 39.634,-39.634Z" style="fill:#fb298d;"/><g id="Tentacle"></g><g id="board"><g><path d="M62.265,34.591c-1.788,0 -3.24,1.452 -3.24,3.24l-0,21.292c-0,1.789 1.452,3.24 3.24,3.24l26.954,0c1.788,0 3.24,-1.451 3.24,-3.24l0,-21.292c0,-1.788 -1.452,-3.24 -3.24,-3.24l-26.954,0Z" style="fill:#fb298d;stroke:#000;stroke-width:2px;"/><path d="M6.366,34.591c-1.789,0 -3.24,1.452 -3.24,3.24l-0,21.292c-0,1.789 1.451,3.24 3.24,3.24l26.954,0c1.788,0 3.24,-1.451 3.24,-3.24l-0,-21.292c-0,-1.788 -1.452,-3.24 -3.24,-3.24l-26.954,0Z" style="fill:#fb298d;stroke:#000;stroke-width:2px;"/><path d="M62.265,172.576c-1.788,-0 -3.24,1.451 -3.24,3.24l-0,21.292c-0,1.788 1.452,3.24 3.24,3.24l26.954,-0c1.788,-0 3.24,-1.452 3.24,-3.24l0,-21.292c0,-1.789 -1.452,-3.24 -3.24,-3.24l-26.954,-0Z" style="fill:#fb298d;stroke:#000;stroke-width:2px;"/><path d="M6.366,172.576c-1.789,-0 -3.24,1.451 -3.24,3.24l-0,21.292c-0,1.788 1.451,3.24 3.24,3.24l26.954,-0c1.788,-0 3.24,-1.452 3.24,-3.24l-0,-21.292c-0,-1.789 -1.452,-3.24 -3.24,-3.24l-26.954,-0Z" style="fill:#fb298d;stroke:#000;stroke-width:2px;"/></g><path d="M86.402,211.169c-25.565,6.289 -51.291,6.803 -77.219,0l-0,-169.559l0,-0.25c0.135,-21.194 17.383,-38.36 38.609,-38.36c21.31,-0 38.61,17.301 38.61,38.61l0,169.559Z" style="fill:#373737;"/><clipPath id="_clip1"><path d="M86.402,211.169c-25.565,6.289 -51.291,6.803 -77.219,0l-0,-169.559l0,-0.25c0.135,-21.194 17.383,-38.36 38.609,-38.36c21.31,-0 38.61,17.301 38.61,38.61l0,169.559Z"/></clipPath><g clip-path="url(#_clip1)"><path d="M24.962,77.774c-1.599,-4.44 -3.635,-8.711 -6.08,-12.749c-2.775,-4.728 -4.408,-10.198 -4.408,-16.038c-0,-17.339 14.396,-31.415 32.129,-31.415c17.733,-0 32.13,14.076 32.13,31.415c-0,5.84 -1.634,11.31 -4.478,15.997c-2.446,4.043 -4.485,8.318 -6.084,12.763c-1.833,5.333 -6.164,9.488 -11.829,10.691c0.769,-1.938 1.361,-4.268 1.679,-6.831c0.088,-0.718 -0.188,-1.432 -0.736,-1.905c-0.549,-0.473 -1.298,-0.642 -1.997,-0.45c-0.003,-0.012 -0.004,-0.011 -0.005,-0.011c0.407,4.021 -2.082,7.742 -5.886,8.55c0.364,-0.918 0.641,-2.028 0.782,-3.25c0.139,-1.029 -0.174,-2.068 -0.859,-2.85c-0.685,-0.782 -1.676,-1.231 -2.717,-1.231l-0,-0.057c-1.058,-0.001 -2.064,0.455 -2.761,1.249c-0.696,0.795 -1.014,1.851 -0.873,2.897c0.199,1.214 0.476,2.324 0.841,3.242c-3.805,-0.808 -6.294,-4.529 -5.887,-8.55c-0.001,-0 -0.001,-0.001 -0.002,-0.001c-0.703,-0.193 -1.456,-0.023 -2.008,0.452c-0.551,0.476 -0.829,1.195 -0.739,1.917c0.329,2.561 0.921,4.891 1.69,6.829c-5.664,-1.203 -9.995,-5.358 -11.902,-10.664Zm-4.006,-40.038c9.592,-0.728 13.348,14.07 21.804,15.031c-1.717,5.011 -6.38,10.338 -11.981,10.338c-7.046,0 -12.867,-7.427 -12.867,-14.458c0,-3.395 0.871,-8.627 3.044,-10.911Zm51.294,-0c-9.592,-0.728 -13.347,14.07 -21.804,15.031c1.717,5.011 6.38,10.338 11.982,10.338c7.045,0 12.866,-7.427 12.866,-14.458c-0,-3.395 -0.871,-8.627 -3.044,-10.911Z" style="fill:#fb298d;"/></g><path d="M86.402,211.169c-25.565,6.289 -51.291,6.803 -77.219,0l-0,-169.559l0,-0.25c0.135,-21.194 17.383,-38.36 38.609,-38.36c21.31,-0 38.61,17.301 38.61,38.61l0,169.559Z" style="fill:none;stroke:#000;stroke-width:2px;"/></g></svg>