<?xml version="1.0" encoding="UTF-8" standalone="no"?><!DOCTYPE svg PUBLIC "-//W3C//DTD SVG 1.1//EN" "http://www.w3.org/Graphics/SVG/1.1/DTD/svg11.dtd"><svg width="100%" height="100%" viewBox="0 0 82 109" version="1.1" xmlns="http://www.w3.org/2000/svg" xmlns:xlink="http://www.w3.org/1999/xlink" xml:space="preserve" xmlns:serif="http://www.serif.com/" style="fill-rule:evenodd;clip-rule:evenodd;stroke-linecap:round;stroke-linejoin:round;stroke-miterlimit:1.5;"><g id="Player"></g><g id="Player1" serif:id="Player"><g id="Skateboard"></g><g id="torso"><path id="butt" d="M15.36,60.603c3.847,8.302 15.385,12.821 32,14c16.328,1.158 26,-0.413 32.217,-2.738c-0.154,19.649 -13.783,30.352 -32.217,32.738c-20.017,2.59 -35.227,-8.291 -36,-24c-0.439,-8.937 0.165,-11.662 4,-20Z" style="fill:#2075a8;stroke:#000;stroke-width:2px;"/><path id="chest" d="M15.36,60.603c2.929,-6.304 9.127,-18.434 10,-24c2.026,-12.911 -3.132,-31.595 20,-32c21.226,-0.372 31.631,38.989 34,62c0.188,1.82 0.27,3.574 0.217,5.262c-6.217,2.325 -15.889,3.896 -32.217,2.738c-16.615,-1.179 -28.153,-5.698 -32,-14Z" style="fill:#af2604;"/><clipPath id="_clip1"><path d="M15.36,60.603c2.929,-6.304 9.127,-18.434 10,-24c2.026,-12.911 -3.132,-31.595 20,-32c21.226,-0.372 31.631,38.989 34,62c0.188,1.82 0.27,3.574 0.217,5.262c-6.217,2.325 -15.889,3.896 -32.217,2.738c-16.615,-1.179 -28.153,-5.698 -32,-14Z"/></clipPath><g clip-path="url(#_clip1)"><path id="lightining" d="M60.352,24.104c4.13,5.75 8.607,11.72 11.008,18.046l-4,-0c1.428,4.984 -0.297,9.968 -1.008,14.952c-1.594,-6.4 -2.9,-12.744 -6.992,-18.952l4,-0l-3.008,-14.046Z" style="fill:#c6f63d;stroke:#000;stroke-width:2px;"/></g><path d="M15.36,60.603c2.929,-6.304 9.127,-18.434 10,-24c2.026,-12.911 -3.132,-31.595 20,-32c21.226,-0.372 31.631,38.989 34,62c0.188,1.82 0.27,3.574 0.217,5.262c-6.217,2.325 -15.889,3.896 -32.217,2.738c-16.615,-1.179 -28.153,-5.698 -32,-14Z" style="fill:none;stroke:#000;stroke-width:2px;"/></g><g id="arm_left"></g><g id="head"><path id="hat_brim" d="M1.593,-57.853c-0,0 -34.214,65.461 -48.908,52.991c-14.694,-12.47 29.595,-58.895 29.595,-58.895l19.313,5.904Z"/><g id="mid_hair"></g></g></g><g id="Orb"></g><path id="particle" d="M135.227,-23.46c27.393,0 49.633,22.24 49.633,49.634c0,27.393 -22.24,49.634 -49.633,49.634c-27.394,-0 -49.634,-22.241 -49.634,-49.634c-0,-27.394 22.24,-49.634 49.634,-49.634Zm-0,10c21.874,0 39.633,17.759 39.633,39.634c0,21.874 -17.759,39.634 -39.633,39.634c-21.875,-0 -39.634,-17.76 -39.634,-39.634c-0,-21.875 17.759,-39.634 39.634,-39.634Z" style="fill:#fb298d;"/><g id="Tentacle"></g><g id="board"></g></svg>