<?xml version="1.0" encoding="UTF-8" standalone="no"?><!DOCTYPE svg PUBLIC "-//W3C//DTD SVG 1.1//EN" "http://www.w3.org/Graphics/SVG/1.1/DTD/svg11.dtd"><svg width="100%" height="100%" viewBox="0 0 48 43" version="1.1" xmlns="http://www.w3.org/2000/svg" xmlns:xlink="http://www.w3.org/1999/xlink" xml:space="preserve" xmlns:serif="http://www.serif.com/" style="fill-rule:evenodd;clip-rule:evenodd;stroke-linecap:round;stroke-linejoin:round;stroke-miterlimit:1.5;"><g id="Player"></g><g id="Player1" serif:id="Player"><g id="Skateboard"><g id="Wheel"></g><g id="Wheel1" serif:id="Wheel"><path d="M35.603,-29.825c6.187,-5.195 15.426,-4.39 20.621,1.797c5.195,6.186 4.39,15.426 -1.796,20.62c-6.187,5.195 -15.426,4.39 -20.621,-1.796c-5.195,-6.186 -4.39,-15.426 1.796,-20.621Z" style="fill:#fb298d;stroke:#000;stroke-width:2px;"/></g></g><g id="torso"></g><g id="arm_left"><path id="hand_left_open" d="M-6.63,52.508c0,0 -1.604,1.957 -2.848,3.474c-0.914,1.114 -1.339,2.551 -1.18,3.983c0.223,2.001 0.539,4.839 0.703,6.32c0.074,0.658 0.041,1.324 -0.096,1.972c-0.487,2.279 -1.746,8.019 -2.906,11.894c-1.721,5.749 0.217,10.703 4.76,11.543c5.57,1.028 10.919,-15.087 10.174,-16.724c0.589,1.315 -4.501,22.479 4.388,21.38c6.56,-0.811 6.952,-20.909 6.952,-20.909c0.25,0.119 -1.933,23.05 7.302,20.755c10.918,-2.713 3.482,-26.77 3.482,-26.77c0,0 9.433,1.572 10.011,-4.035c0.578,-5.607 -2.116,-8.041 -3.557,-8.694c-1.44,-0.653 -6.443,1.239 -9.786,-1.252c-2.541,-1.894 -3.043,-4.543 -5.983,-6.094c-2.94,-1.551 -5.787,-0.732 -5.787,-0.732" style="fill:#fbb886;stroke:#000;stroke-width:2px;"/><g id="hand_left_fist"><path id="hand_left_fist1" serif:id="hand_left_fist" d="M4.775,14.447c-0,0 -1.265,2.192 -2.245,3.891c-0.721,1.249 -0.907,2.735 -0.516,4.122c0.58,2.062 1.418,5.041 1.795,6.379c0.13,0.463 0.206,0.939 0.226,1.419c0.112,2.229 0.782,8.859 4.624,8.933c5.663,0.109 7.768,-1.921 7.511,-3.748c0.241,1.836 -1.174,5.636 7.429,3.145c4.735,-1.371 4.566,-5.101 4.566,-5.101c0.493,0.495 1.593,4.365 6.548,2.025c10.173,-4.804 5.545,-13.394 5.545,-13.394c0,-0 -3.888,-9.429 -7.592,-11.343c-2.815,-1.455 -4.235,0.01 -7.388,-1.042c-3.153,-1.052 -5.715,-1.666 -5.715,-1.666" style="fill:#fbb886;"/><clipPath id="_clip1"><path d="M4.775,14.447c-0,0 -1.265,2.192 -2.245,3.891c-0.721,1.249 -0.907,2.735 -0.516,4.122c0.58,2.062 1.418,5.041 1.795,6.379c0.13,0.463 0.206,0.939 0.226,1.419c0.112,2.229 0.782,8.859 4.624,8.933c5.663,0.109 7.768,-1.921 7.511,-3.748c0.241,1.836 -1.174,5.636 7.429,3.145c4.735,-1.371 4.566,-5.101 4.566,-5.101c0.493,0.495 1.593,4.365 6.548,2.025c10.173,-4.804 5.545,-13.394 5.545,-13.394c0,-0 -3.888,-9.429 -7.592,-11.343c-2.815,-1.455 -4.235,0.01 -7.388,-1.042c-3.153,-1.052 -5.715,-1.666 -5.715,-1.666"/></clipPath><g clip-path="url(#_clip1)"><path d="M16.03,37.23c0.073,0.053 1.175,-12.001 -1.085,-14.594c-4.545,-5.212 -12.869,1.545 -12.007,2.806" style="fill:none;stroke:#000;stroke-width:2px;"/><path d="M28.387,33.591l-2.948,-12.903" style="fill:none;stroke:#000;stroke-width:2px;"/></g><path d="M4.775,14.447c-0,0 -1.265,2.192 -2.245,3.891c-0.721,1.249 -0.907,2.735 -0.516,4.122c0.58,2.062 1.418,5.041 1.795,6.379c0.13,0.463 0.206,0.939 0.226,1.419c0.112,2.229 0.782,8.859 4.624,8.933c5.663,0.109 7.768,-1.921 7.511,-3.748c0.241,1.836 -1.174,5.636 7.429,3.145c4.735,-1.371 4.566,-5.101 4.566,-5.101c0.493,0.495 1.593,4.365 6.548,2.025c10.173,-4.804 5.545,-13.394 5.545,-13.394c0,-0 -3.888,-9.429 -7.592,-11.343c-2.815,-1.455 -4.235,0.01 -7.388,-1.042c-3.153,-1.052 -5.715,-1.666 -5.715,-1.666" style="fill:none;stroke:#000;stroke-width:2px;"/><path id="thumb" d="M24.157,8.067c-0,-0 -8.015,4.977 -8.817,7.276c-1.015,2.908 0.688,9.698 6.426,7.119c5.209,-2.341 14.011,-8.392 14.011,-8.392c0.633,-6.317 -6.994,-8.637 -11.62,-6.003Z" style="fill:#fbb886;stroke:#000;stroke-width:2px;"/></g><path id="hand_left_fist2" serif:id="hand_left_fist" d="M-28.606,6.998c0,-0 -2.317,1.017 -4.113,1.805c-1.32,0.579 -2.35,1.667 -2.857,3.016c-0.754,2.005 -1.843,4.901 -2.333,6.202c-0.169,0.45 -0.39,0.879 -0.658,1.277c-1.23,1.863 -4.617,7.602 -1.566,9.937c4.499,3.442 8.939,3.482 9.017,1.686c-0.072,1.439 -5.043,3.628 3.378,6.677c6.215,2.251 6.516,-1.117 6.516,-1.117c0.169,0.219 -5.012,3.081 4.26,5.222c10.962,2.531 12.402,-7.507 12.402,-7.507c0,-0 2.452,-9.9 0.602,-13.636c-1.407,-2.84 -3.418,-2.501 -5.336,-5.216c-1.917,-2.715 -3.618,-4.728 -3.618,-4.728" style="fill:#fbb886;stroke:#000;stroke-width:2px;"/></g><g id="head"></g></g><g id="Orb"></g><g id="Tentacle"></g><g id="board"></g></svg>