<?xml version="1.0" encoding="UTF-8" standalone="no"?><!DOCTYPE svg PUBLIC "-//W3C//DTD SVG 1.1//EN" "http://www.w3.org/Graphics/SVG/1.1/DTD/svg11.dtd"><svg width="100%" height="100%" viewBox="0 0 58 58" version="1.1" xmlns="http://www.w3.org/2000/svg" xmlns:xlink="http://www.w3.org/1999/xlink" xml:space="preserve" xmlns:serif="http://www.serif.com/" style="fill-rule:evenodd;clip-rule:evenodd;stroke-linecap:round;stroke-linejoin:round;stroke-miterlimit:1.5;"><g id="Player"></g><g id="Player1" serif:id="Player"><g id="Skateboard"></g><g id="torso"></g><g id="arm_left"><path id="hand_left_open" d="M72.37,9.508c0,0 -1.604,1.957 -2.848,3.474c-0.914,1.114 -1.339,2.551 -1.18,3.983c0.223,2.001 0.539,4.839 0.703,6.32c0.074,0.658 0.041,1.324 -0.096,1.972c-0.487,2.279 -1.746,8.019 -2.906,11.894c-1.721,5.749 0.217,10.703 4.76,11.543c5.57,1.028 10.919,-15.087 10.174,-16.724c0.589,1.315 -4.501,22.479 4.388,21.38c6.56,-0.811 6.952,-20.909 6.952,-20.909c0.25,0.119 -1.933,23.05 7.302,20.755c10.918,-2.713 3.482,-26.77 3.482,-26.77c0,0 9.433,1.572 10.011,-4.035c0.578,-5.607 -2.116,-8.041 -3.557,-8.694c-1.44,-0.653 -6.443,1.239 -9.786,-1.252c-2.541,-1.894 -3.043,-4.543 -5.983,-6.094c-2.94,-1.551 -5.787,-0.732 -5.787,-0.732" style="fill:#fbb886;stroke:#000;stroke-width:2px;"/><g id="hand_left_fist"></g><path id="hand_left_open1" serif:id="hand_left_open" d="M22.694,3.66c-0,-0 -2.318,1.017 -4.114,1.805c-1.32,0.579 -2.35,1.667 -2.857,3.016c-0.709,1.885 -1.713,4.557 -2.238,5.951c-0.233,0.621 -0.563,1.199 -0.979,1.715c-1.468,1.811 -5.192,6.356 -7.983,9.284c-4.14,4.344 -4.658,9.639 -0.989,12.446c4.498,3.442 16.571,-8.498 16.65,-10.294c-0.072,1.439 -14.203,17.997 -5.782,21.046c6.216,2.251 15.675,-15.486 15.675,-15.486c0.17,0.219 -12.172,19.67 -2.899,21.811c10.962,2.53 15.239,-22.283 15.239,-22.283c-0,-0 7.695,5.676 10.752,0.941c3.057,-4.736 1.759,-8.127 0.771,-9.362c-0.988,-1.235 -6.305,-1.816 -8.155,-5.552c-1.407,-2.84 -0.654,-5.429 -2.571,-8.144c-1.917,-2.715 -4.826,-3.276 -4.826,-3.276" style="fill:#fbb886;stroke:#000;stroke-width:2px;"/><path id="hand_left_fist1" serif:id="hand_left_fist" d="M50.394,-36.002c0,-0 -2.317,1.017 -4.113,1.805c-1.32,0.579 -2.35,1.667 -2.857,3.016c-0.754,2.005 -1.843,4.901 -2.333,6.202c-0.169,0.45 -0.39,0.879 -0.658,1.277c-1.23,1.863 -4.617,7.602 -1.566,9.937c4.499,3.442 8.939,3.482 9.017,1.686c-0.072,1.439 -5.043,3.628 3.378,6.677c6.215,2.251 6.516,-1.117 6.516,-1.117c0.169,0.219 -5.012,3.081 4.26,5.222c10.962,2.531 12.402,-7.507 12.402,-7.507c0,-0 2.452,-9.9 0.602,-13.636c-1.407,-2.84 -3.418,-2.501 -5.336,-5.216c-1.917,-2.715 -3.618,-4.728 -3.618,-4.728" style="fill:#fbb886;stroke:#000;stroke-width:2px;"/></g><g id="head"></g></g><g id="Orb"></g><g id="Tentacle"></g><g id="board"></g></svg>