<?xml version="1.0" encoding="UTF-8" standalone="no"?><!DOCTYPE svg PUBLIC "-//W3C//DTD SVG 1.1//EN" "http://www.w3.org/Graphics/SVG/1.1/DTD/svg11.dtd"><svg width="100%" height="100%" viewBox="0 0 136 134" version="1.1" xmlns="http://www.w3.org/2000/svg" xmlns:xlink="http://www.w3.org/1999/xlink" xml:space="preserve" xmlns:serif="http://www.serif.com/" style="fill-rule:evenodd;clip-rule:evenodd;stroke-linecap:round;stroke-linejoin:round;stroke-miterlimit:1.5;"><g id="Player"></g><g id="Player1" serif:id="Player"><g id="Skateboard"></g><g id="torso"></g><g id="arm_left"></g><g id="head"><path id="hat_brim" d="M55.593,76.147c-0,0 -34.214,65.461 -48.908,52.991c-14.694,-12.47 29.595,-58.895 29.595,-58.895l19.313,5.904Z"/><path id="back_hair" d="M11.974,113.548c16.517,4.465 30.694,-6.021 34.732,-20.958c4.038,-14.936 -6.093,-30.688 -22.61,-35.153c1.285,8.126 1.316,18.47 -1.436,28.653c-2.753,10.184 -5.481,21.086 -10.686,27.458Z" style="fill:#7a3b21;stroke:#000;stroke-width:2px;"/><path id="head_base" d="M77.747,29.243c32.269,0 50.644,20.553 50.644,45.261c0,24.708 -18.375,44.276 -50.644,44.276c-32.269,-0 -58.467,-20.06 -58.467,-44.768c-0,-24.709 26.198,-44.769 58.467,-44.769Z" style="fill:#fbb886;"/><clipPath id="_clip1"><path d="M77.747,29.243c32.269,0 50.644,20.553 50.644,45.261c0,24.708 -18.375,44.276 -50.644,44.276c-32.269,-0 -58.467,-20.06 -58.467,-44.768c-0,-24.709 26.198,-44.769 58.467,-44.769Z"/></clipPath><g clip-path="url(#_clip1)"><rect id="mouth" x="89.254" y="92.335" width="23.72" height="0" style="stroke:#000;stroke-width:2px;"/><ellipse id="right_eye" cx="114.159" cy="56.036" rx="5.337" ry="5.731"/><ellipse id="left_eye" cx="91.626" cy="56.036" rx="5.337" ry="5.731"/></g><path d="M77.747,29.243c32.269,0 50.644,20.553 50.644,45.261c0,24.708 -18.375,44.276 -50.644,44.276c-32.269,-0 -58.467,-20.06 -58.467,-44.768c-0,-24.709 26.198,-44.769 58.467,-44.769Z" style="fill:none;stroke:#000;stroke-width:2px;"/><g id="mid_hair"><path d="M46.593,91.012c16.118,-5.739 26.707,-32.827 21.517,-47.403c-5.19,-14.577 -18.399,-0.336 -34.517,5.403c5.685,5.946 -7.538,9.062 -4,19c3.538,9.937 17.648,14.798 17,23Z" style="fill:#7a3b21;stroke:#000;stroke-width:2px;"/><path d="M67.593,77.012c16.118,-5.739 21.798,-22.433 16.608,-37.01c-5.19,-14.576 -22.49,-21.751 -38.608,-16.012c5.685,5.946 11.603,14.43 15.141,24.367c3.539,9.938 7.507,20.453 6.859,28.655Z" style="fill:#7a3b21;stroke:#000;stroke-width:2px;"/></g><path id="nose" d="M103.485,64.403c0,-0 10.934,-8.358 13.101,-10.013c0.258,-0.198 0.544,-0.356 0.848,-0.469c1.91,-0.654 9.081,-2.641 13.955,2.759c5.666,6.277 -0.809,16.081 -5.773,18.877c-8.48,4.776 -18.282,5.148 -18.282,5.148" style="fill:#fbb886;stroke:#000;stroke-width:2px;"/><path id="hat_base" d="M21.556,88.978c-0.726,-0.67 -11.89,-11.233 -11.963,-26.966c-0.076,-16.371 -0.371,-25.855 16,-40c21.018,-18.161 31.688,-15.787 39,-16c11.653,-0.34 33.823,6.824 41,16c7.373,9.427 11.448,19.424 9,20c-0,-0 -27.772,-6.613 -47,3c-20.667,10.332 -46.208,42.775 -46.037,43.966c0.024,0.022 0.037,0.034 0.037,0.034c-0.022,-0 -0.034,-0.012 -0.037,-0.034Z" style="fill:#3a3945;stroke:#000;stroke-width:2px;"/><path id="ear" d="M32.326,71.957c-0,-0 -4.361,-4.183 -13.046,-2.548c-8.685,1.636 -15.866,15.271 -10.674,22.926c5.191,7.655 14.122,16.13 33.208,11.463" style="fill:#fbb886;"/><clipPath id="_clip2"><path d="M32.326,71.957c-0,-0 -4.361,-4.183 -13.046,-2.548c-8.685,1.636 -15.866,15.271 -10.674,22.926c5.191,7.655 14.122,16.13 33.208,11.463"/></clipPath><g clip-path="url(#_clip2)"><path d="M14.536,87.24c-0,0 -0.785,-4.221 3.558,-7.641c4.343,-3.42 9.488,-0 9.488,-0" style="fill:none;stroke:#000;stroke-width:2px;"/></g><path d="M32.326,71.957c-0,-0 -4.361,-4.183 -13.046,-2.548c-8.685,1.636 -15.866,15.271 -10.674,22.926c5.191,7.655 14.122,16.13 33.208,11.463" style="fill:none;stroke:#000;stroke-width:2px;"/><path id="front_hair" d="M103.593,70.012c11.844,-12.347 11.372,-35.626 -0.108,-46c-4.72,-4.266 -20.542,-4.312 -25.892,-0c-0.162,3.08 -0.533,4.588 -0,10c6.786,9.082 25.237,27.639 26,36Z" style="fill:#7a3b21;stroke:#000;stroke-width:2px;"/></g></g><g id="Orb"></g><path id="particle" d="M189.227,110.54c27.393,0 49.633,22.24 49.633,49.634c0,27.393 -22.24,49.634 -49.633,49.634c-27.394,-0 -49.634,-22.241 -49.634,-49.634c-0,-27.394 22.24,-49.634 49.634,-49.634Zm-0,10c21.874,0 39.633,17.759 39.633,39.634c0,21.874 -17.759,39.634 -39.633,39.634c-21.875,-0 -39.634,-17.76 -39.634,-39.634c-0,-21.875 17.759,-39.634 39.634,-39.634Z" style="fill:#fb298d;"/><g id="Tentacle"></g><g id="board"></g></svg>