<?xml version="1.0" encoding="UTF-8" standalone="no"?><!DOCTYPE svg PUBLIC "-//W3C//DTD SVG 1.1//EN" "http://www.w3.org/Graphics/SVG/1.1/DTD/svg11.dtd"><svg width="100%" height="100%" viewBox="0 0 89 83" version="1.1" xmlns="http://www.w3.org/2000/svg" xmlns:xlink="http://www.w3.org/1999/xlink" xml:space="preserve" xmlns:serif="http://www.serif.com/" style="fill-rule:evenodd;clip-rule:evenodd;stroke-linecap:round;stroke-linejoin:round;stroke-miterlimit:1.5;"><g id="Player"></g><g id="Player1" serif:id="Player"><g id="Skateboard"></g><g><path d="M45.324,52.597c0.886,0.369 1.874,0.412 2.788,0.12c7.959,-2.528 6.078,-2.554 12.571,-2.554c14.294,0 23.909,6.838 24,21.11l0,0.168c0,4.948 -11.559,8.969 -25.832,9l-0.336,0c-1.657,-0.003 -3.277,-0.061 -4.847,-0.167c-11.47,-0.335 -13.235,-5.31 -25.492,-4.969c-1.44,0.089 -2.935,0.136 -4.469,0.136c-11.603,0 -15.239,-3.106 -15.239,-6.417c0,-0.292 0.073,-0.579 0.215,-0.861c0.612,-7.805 1.201,-12.637 5.785,-19.417c13.691,-2.957 5.63,-1.184 20.215,-0.583c0,0 7.5,3.125 10.641,4.434Zm39.359,18.844l-0.001,-0.071c0.001,0.012 0.001,0.024 0.001,0.036l0,0.035Z" style="fill:#3a3945;"/><clipPath id="_clip1"><path d="M45.324,52.597c0.886,0.369 1.874,0.412 2.788,0.12c7.959,-2.528 6.078,-2.554 12.571,-2.554c14.294,0 23.909,6.838 24,21.11l0,0.168c0,4.948 -11.559,8.969 -25.832,9l-0.336,0c-1.657,-0.003 -3.277,-0.061 -4.847,-0.167c-11.47,-0.335 -13.235,-5.31 -25.492,-4.969c-1.44,0.089 -2.935,0.136 -4.469,0.136c-11.603,0 -15.239,-3.106 -15.239,-6.417c0,-0.292 0.073,-0.579 0.215,-0.861c0.612,-7.805 1.201,-12.637 5.785,-19.417c13.691,-2.957 5.63,-1.184 20.215,-0.583c0,0 7.5,3.125 10.641,4.434Zm39.359,18.844l-0.001,-0.071c0.001,0.012 0.001,0.024 0.001,0.036l0,0.035Z"/></clipPath><g clip-path="url(#_clip1)"><path d="M3.245,64.824c2.189,2.646 10.525,4.617 20.462,4.617c1.534,0 3.029,-0.047 4.469,-0.136c12.257,-0.341 14.022,4.634 25.492,4.969c1.57,0.106 3.19,0.164 4.847,0.167l0.336,0c12.827,-0.028 23.462,-3.278 25.486,-7.528c0.219,1.331 0.337,2.694 0.346,4.082l0,0.168c0,4.948 -11.559,8.969 -25.832,9l-0.336,0c-1.657,-0.003 -3.277,-0.061 -4.847,-0.167c-11.47,-0.335 -13.235,-5.31 -25.492,-4.969c-1.44,0.089 -2.935,0.136 -4.469,0.136c-11.603,0 -21.024,-2.688 -21.024,-6c0,-0.292 0.073,-0.579 0.215,-0.86c0.092,-1.166 0.205,-2.326 0.347,-3.479Z" style="fill:#d0d0d0;stroke:#000;stroke-width:2px;"/></g><path d="M45.324,52.597c0.886,0.369 1.874,0.412 2.788,0.12c7.959,-2.528 6.078,-2.554 12.571,-2.554c14.294,0 23.909,6.838 24,21.11l0,0.168c0,4.948 -11.559,8.969 -25.832,9l-0.336,0c-1.657,-0.003 -3.277,-0.061 -4.847,-0.167c-11.47,-0.335 -13.235,-5.31 -25.492,-4.969c-1.44,0.089 -2.935,0.136 -4.469,0.136c-11.603,0 -15.239,-3.106 -15.239,-6.417c0,-0.292 0.073,-0.579 0.215,-0.861c0.612,-7.805 1.201,-12.637 5.785,-19.417c13.691,-2.957 5.63,-1.184 20.215,-0.583c0,0 7.5,3.125 10.641,4.434Zm39.359,18.844l-0.001,-0.071c0.001,0.012 0.001,0.024 0.001,0.036l0,0.035Z" style="fill:none;stroke:#000;stroke-width:2px;"/><path d="M14.879,7.679c-0,0 6.038,14.089 5.037,19.394c-1.002,5.304 -3.233,25.09 -3.233,25.09c0,0 -1.356,4.302 9.86,3.642c11.216,-0.66 12.14,-2.642 12.14,-2.642c0,0 3.923,-12.847 3.233,-25.09c-0.69,-12.244 -5.216,-25.473 -5.216,-25.473" style="fill:#2075a8;stroke:#000;stroke-width:2px;"/></g><g id="torso"></g><g id="arm_left"><path id="hand_left_open" d="M-54.63,27.508c0,0 -1.604,1.957 -2.848,3.474c-0.914,1.114 -1.339,2.551 -1.18,3.983c0.223,2.001 0.539,4.839 0.703,6.32c0.074,0.658 0.041,1.324 -0.096,1.972c-0.487,2.279 -1.746,8.019 -2.906,11.894c-1.721,5.749 0.217,10.703 4.76,11.543c5.57,1.028 10.919,-15.087 10.174,-16.724c0.589,1.315 -4.501,22.479 4.388,21.38c6.56,-0.811 6.952,-20.909 6.952,-20.909c0.25,0.119 -1.933,23.05 7.302,20.755c10.918,-2.713 3.482,-26.77 3.482,-26.77c0,0 9.433,1.572 10.011,-4.035c0.578,-5.607 -2.116,-8.041 -3.557,-8.694c-1.44,-0.653 -6.443,1.239 -9.786,-1.252c-2.541,-1.894 -3.043,-4.543 -5.983,-6.094c-2.94,-1.551 -5.787,-0.732 -5.787,-0.732" style="fill:#fbb886;stroke:#000;stroke-width:2px;"/><g id="hand_left_fist"><path id="hand_left_fist1" serif:id="hand_left_fist" d="M-43.225,-10.553c-0,0 -1.265,2.192 -2.245,3.891c-0.721,1.249 -0.907,2.735 -0.516,4.122c0.58,2.062 1.418,5.041 1.795,6.379c0.13,0.463 0.206,0.939 0.226,1.419c0.112,2.229 0.782,8.859 4.624,8.933c5.663,0.109 7.768,-1.921 7.511,-3.748c0.241,1.836 -1.174,5.636 7.429,3.145c4.735,-1.371 4.566,-5.101 4.566,-5.101c0.493,0.495 1.593,4.365 6.548,2.025c10.173,-4.804 5.545,-13.394 5.545,-13.394c0,-0 -3.888,-9.429 -7.592,-11.343c-2.815,-1.455 -4.235,0.01 -7.388,-1.042c-3.153,-1.052 -5.715,-1.666 -5.715,-1.666" style="fill:#fbb886;"/><g id="hand_left_fist2" serif:id="hand_left_fist"></g><path id="hand_left_fist3" serif:id="hand_left_fist" d="M-43.225,-10.553c-0,0 -1.265,2.192 -2.245,3.891c-0.721,1.249 -0.907,2.735 -0.516,4.122c0.58,2.062 1.418,5.041 1.795,6.379c0.13,0.463 0.206,0.939 0.226,1.419c0.112,2.229 0.782,8.859 4.624,8.933c5.663,0.109 7.768,-1.921 7.511,-3.748c0.241,1.836 -1.174,5.636 7.429,3.145c4.735,-1.371 4.566,-5.101 4.566,-5.101c0.493,0.495 1.593,4.365 6.548,2.025c10.173,-4.804 5.545,-13.394 5.545,-13.394c0,-0 -3.888,-9.429 -7.592,-11.343c-2.815,-1.455 -4.235,0.01 -7.388,-1.042c-3.153,-1.052 -5.715,-1.666 -5.715,-1.666" style="fill:none;stroke:#000;stroke-width:2px;"/></g></g><g id="head"><path id="hat_brim" d="M90.593,-57.853c-0,0 -34.214,65.461 -48.908,52.991c-14.694,-12.47 29.595,-58.895 29.595,-58.895l19.313,5.904Z"/><g id="mid_hair"></g></g></g><g id="Orb"></g><g id="Tentacle"></g><g id="board"></g></svg>