<?xml version="1.0" encoding="UTF-8" standalone="no"?><!DOCTYPE svg PUBLIC "-//W3C//DTD SVG 1.1//EN" "http://www.w3.org/Graphics/SVG/1.1/DTD/svg11.dtd"><svg width="100%" height="100%" viewBox="0 0 217 224" version="1.1" xmlns="http://www.w3.org/2000/svg" xmlns:xlink="http://www.w3.org/1999/xlink" xml:space="preserve" xmlns:serif="http://www.serif.com/" style="fill-rule:evenodd;clip-rule:evenodd;stroke-linejoin:round;stroke-miterlimit:2;"><g id="Player"></g><g id="Player1" serif:id="Player"></g><g id="Orb"></g><g id="Tentacle"></g><g id="board"></g><g id="Smoke"></g><g id="EyeMonster"><path id="Spikes" d="M109.986,2.646l14.489,65.933l47.715,-41.025l-24.272,58.058l67.184,-6.595l-58.229,34.155l53.762,32.702l-62.717,-5.143l27.033,61.858l-50.476,-44.825l-14.489,61.236l-14.489,-61.236l-50.477,44.825l27.033,-61.858l-62.716,5.143l53.762,-32.702l-58.23,-34.155l67.184,6.595l-24.272,-58.058l47.716,41.025l14.489,-65.933Z" style="fill:#4a9b1f;"/><path d="M109.986,2.646l14.489,65.933l47.715,-41.025l-24.272,58.058l67.184,-6.595l-58.229,34.155l53.762,32.702l-62.717,-5.143l27.033,61.858l-50.476,-44.825l-14.489,61.236l-14.489,-61.236l-50.477,44.825l27.033,-61.858l-62.716,5.143l53.762,-32.702l-58.23,-34.155l67.184,6.595l-24.272,-58.058l47.716,41.025l14.489,-65.933Zm-0,13.977l11.558,52.6c0.227,1.032 0.979,1.868 1.981,2.202c1.001,0.334 2.105,0.118 2.905,-0.571l38.102,-32.759c-0,0 -19.382,46.36 -19.382,46.36c-0.407,0.974 -0.272,2.091 0.355,2.94c0.628,0.849 1.655,1.306 2.706,1.203l53.597,-5.261c0,-0 -46.453,27.247 -46.453,27.247c-0.911,0.534 -1.474,1.508 -1.482,2.563c-0.009,1.056 0.538,2.039 1.441,2.588l42.929,26.113c-0,0 -50.08,-4.107 -50.08,-4.107c-1.052,-0.086 -2.072,0.387 -2.686,1.246c-0.614,0.859 -0.731,1.978 -0.308,2.945l21.566,49.349c0,-0 -40.268,-35.761 -40.268,-35.761c-0.79,-0.701 -1.89,-0.935 -2.897,-0.617c-1.006,0.318 -1.772,1.142 -2.015,2.17l-11.569,48.898c-0,-0 -11.57,-48.898 -11.57,-48.898c-0.243,-1.028 -1.008,-1.852 -2.015,-2.17c-1.007,-0.318 -2.107,-0.084 -2.896,0.617l-40.269,35.761c0,-0 21.566,-49.349 21.566,-49.349c0.423,-0.967 0.306,-2.086 -0.307,-2.945c-0.614,-0.859 -1.634,-1.332 -2.687,-1.246l-50.079,4.107c-0,0 42.929,-26.113 42.929,-26.113c0.902,-0.549 1.449,-1.532 1.441,-2.588c-0.009,-1.055 -0.572,-2.029 -1.482,-2.563l-46.454,-27.247c0,-0 53.597,5.261 53.597,5.261c1.051,0.103 2.079,-0.354 2.706,-1.203c0.628,-0.849 0.763,-1.966 0.355,-2.94l-19.381,-46.36c-0,0 38.101,32.759 38.101,32.759c0.801,0.689 1.904,0.905 2.906,0.571c1.001,-0.334 1.753,-1.17 1.98,-2.202l11.559,-52.6Z"/><g id="Flesh"><path d="M95.453,57.031c0,-8.021 6.512,-14.533 14.533,-14.533c8.02,0 14.532,6.512 14.532,14.533c4.011,-6.947 12.906,-9.33 19.852,-5.32c6.946,4.011 9.33,12.906 5.319,19.852c6.947,-4.01 15.842,-1.627 19.852,5.319c4.011,6.947 1.627,15.842 -5.319,19.852c8.021,0 14.532,6.512 14.532,14.533c0,8.02 -6.511,14.532 -14.532,14.532c6.946,4.011 9.33,12.906 5.319,19.852c-4.01,6.946 -12.905,9.33 -19.852,5.319c4.011,6.947 1.627,15.842 -5.319,19.852c-6.946,4.011 -15.841,1.627 -19.852,-5.319c0,8.021 -6.512,14.532 -14.532,14.532c-8.021,0 -14.533,-6.511 -14.533,-14.532c-4.01,6.946 -12.905,9.33 -19.852,5.319c-6.946,-4.01 -9.329,-12.905 -5.319,-19.852c-6.946,4.011 -15.841,1.627 -19.852,-5.319c-4.01,-6.946 -1.627,-15.841 5.32,-19.852c-8.021,0 -14.533,-6.512 -14.533,-14.532c0,-8.021 6.512,-14.533 14.533,-14.533c-6.947,-4.01 -9.33,-12.905 -5.32,-19.852c4.011,-6.946 12.906,-9.329 19.852,-5.319c-4.01,-6.946 -1.627,-15.841 5.319,-19.852c6.947,-4.01 15.842,-1.627 19.852,5.32Z" style="fill:#fb298d;"/><path d="M95.453,57.031c0,-8.021 6.512,-14.533 14.533,-14.533c8.02,0 14.532,6.512 14.532,14.533c4.011,-6.947 12.906,-9.33 19.852,-5.32c6.946,4.011 9.33,12.906 5.319,19.852c6.947,-4.01 15.842,-1.627 19.852,5.319c4.011,6.947 1.627,15.842 -5.319,19.852c8.021,0 14.532,6.512 14.532,14.533c0,8.02 -6.511,14.532 -14.532,14.532c6.946,4.011 9.33,12.906 5.319,19.852c-4.01,6.946 -12.905,9.33 -19.852,5.319c4.011,6.947 1.627,15.842 -5.319,19.852c-6.946,4.011 -15.841,1.627 -19.852,-5.319c0,8.021 -6.512,14.532 -14.532,14.532c-8.021,0 -14.533,-6.511 -14.533,-14.532c-4.01,6.946 -12.905,9.33 -19.852,5.319c-6.946,-4.01 -9.329,-12.905 -5.319,-19.852c-6.946,4.011 -15.841,1.627 -19.852,-5.319c-4.01,-6.946 -1.627,-15.841 5.32,-19.852c-8.021,0 -14.533,-6.512 -14.533,-14.532c0,-8.021 6.512,-14.533 14.533,-14.533c-6.947,-4.01 -9.33,-12.905 -5.32,-19.852c4.011,-6.946 12.906,-9.329 19.852,-5.319c-4.01,-6.946 -1.627,-15.841 5.319,-19.852c6.947,-4.01 15.842,-1.627 19.852,5.32Zm-2.598,1.5c0.679,1.175 2.063,1.749 3.375,1.397c1.311,-0.351 2.223,-1.54 2.223,-2.897c0,-6.365 5.168,-11.533 11.533,-11.533c6.365,0 11.532,5.168 11.532,11.533c0,1.357 0.912,2.546 2.224,2.897c1.311,0.352 2.695,-0.222 3.374,-1.397c3.183,-5.513 10.242,-7.404 15.754,-4.222c5.512,3.183 7.404,10.242 4.221,15.754c-0.679,1.176 -0.483,2.661 0.477,3.621c0.96,0.961 2.445,1.156 3.621,0.477c5.513,-3.182 12.572,-1.291 15.754,4.221c3.183,5.513 1.291,12.572 -4.221,15.754c-1.176,0.679 -1.749,2.063 -1.398,3.375c0.352,1.311 1.54,2.223 2.898,2.223c6.365,0 11.532,5.168 11.532,11.533c0,6.365 -5.167,11.532 -11.532,11.532c-1.358,0 -2.546,0.912 -2.898,2.224c-0.351,1.311 0.222,2.695 1.398,3.374c5.512,3.183 7.404,10.242 4.221,15.754c-3.182,5.512 -10.241,7.404 -15.754,4.221c-1.176,-0.679 -2.661,-0.483 -3.621,0.477c-0.96,0.96 -1.156,2.445 -0.477,3.621c3.183,5.513 1.291,12.572 -4.221,15.754c-5.512,3.183 -12.571,1.291 -15.754,-4.221c-0.679,-1.176 -2.063,-1.749 -3.374,-1.398c-1.312,0.352 -2.224,1.54 -2.224,2.898c0,6.365 -5.167,11.532 -11.532,11.532c-6.365,0 -11.533,-5.167 -11.533,-11.532c0,-1.358 -0.912,-2.546 -2.223,-2.898c-1.312,-0.351 -2.696,0.222 -3.375,1.398c-3.182,5.512 -10.241,7.404 -15.754,4.221c-5.512,-3.182 -7.403,-10.241 -4.221,-15.754c0.679,-1.176 0.484,-2.661 -0.477,-3.621c-0.96,-0.96 -2.445,-1.156 -3.621,-0.477c-5.512,3.183 -12.571,1.291 -15.754,-4.221c-3.182,-5.512 -1.291,-12.571 4.222,-15.754c1.175,-0.679 1.749,-2.063 1.397,-3.374c-0.351,-1.312 -1.54,-2.224 -2.897,-2.224c-6.365,0 -11.533,-5.167 -11.533,-11.532c0,-6.365 5.168,-11.533 11.533,-11.533c1.357,0 2.546,-0.912 2.897,-2.223c0.352,-1.312 -0.222,-2.696 -1.397,-3.375c-5.513,-3.182 -7.404,-10.241 -4.222,-15.754c3.183,-5.512 10.242,-7.403 15.754,-4.221c1.176,0.679 2.661,0.484 3.621,-0.477c0.961,-0.96 1.156,-2.445 0.477,-3.621c-3.182,-5.512 -1.291,-12.571 4.221,-15.754c5.513,-3.182 12.572,-1.291 15.754,4.222Z"/><path d="M109.986,59.834c1.901,-7.097 9.207,-11.314 16.303,-9.413c7.097,1.902 11.315,9.207 9.413,16.304c5.195,-5.195 13.631,-5.195 18.826,-0c5.195,5.195 5.195,13.63 -0,18.825c7.096,-1.901 14.402,2.317 16.303,9.413c1.902,7.097 -2.316,14.402 -9.412,16.304c7.096,1.901 11.314,9.207 9.412,16.303c-1.901,7.097 -9.207,11.315 -16.303,9.413c5.195,5.195 5.195,13.631 -0,18.826c-5.195,5.195 -13.631,5.195 -18.826,-0c1.902,7.097 -2.316,14.402 -9.413,16.303c-7.096,1.902 -14.402,-2.316 -16.303,-9.412c-1.902,7.096 -9.207,11.314 -16.304,9.412c-7.096,-1.901 -11.314,-9.206 -9.413,-16.303c-5.195,5.195 -13.63,5.195 -18.825,-0c-5.195,-5.195 -5.195,-13.631 -0,-18.826c-7.097,1.902 -14.402,-2.316 -16.304,-9.413c-1.901,-7.096 2.316,-14.402 9.413,-16.303c-7.097,-1.902 -11.314,-9.207 -9.413,-16.304c1.902,-7.096 9.207,-11.314 16.304,-9.413c-5.195,-5.195 -5.195,-13.63 -0,-18.825c5.195,-5.195 13.63,-5.195 18.825,-0c-1.901,-7.097 2.317,-14.402 9.413,-16.304c7.097,-1.901 14.402,2.316 16.304,9.413Z" style="fill:#fd7cae;"/><path d="M109.986,59.834c1.901,-7.097 9.207,-11.314 16.303,-9.413c7.097,1.902 11.315,9.207 9.413,16.304c5.195,-5.195 13.631,-5.195 18.826,-0c5.195,5.195 5.195,13.63 -0,18.825c7.096,-1.901 14.402,2.317 16.303,9.413c1.902,7.097 -2.316,14.402 -9.412,16.304c7.096,1.901 11.314,9.207 9.412,16.303c-1.901,7.097 -9.207,11.315 -16.303,9.413c5.195,5.195 5.195,13.631 -0,18.826c-5.195,5.195 -13.631,5.195 -18.826,-0c1.902,7.097 -2.316,14.402 -9.413,16.303c-7.096,1.902 -14.402,-2.316 -16.303,-9.412c-1.902,7.096 -9.207,11.314 -16.304,9.412c-7.096,-1.901 -11.314,-9.206 -9.413,-16.303c-5.195,5.195 -13.63,5.195 -18.825,-0c-5.195,-5.195 -5.195,-13.631 -0,-18.826c-7.097,1.902 -14.402,-2.316 -16.304,-9.413c-1.901,-7.096 2.316,-14.402 9.413,-16.303c-7.097,-1.902 -11.314,-9.207 -9.413,-16.304c1.902,-7.096 9.207,-11.314 16.304,-9.413c-5.195,-5.195 -5.195,-13.63 -0,-18.825c5.195,-5.195 13.63,-5.195 18.825,-0c-1.901,-7.097 2.317,-14.402 9.413,-16.304c7.097,-1.901 14.402,2.316 16.304,9.413Zm-2.898,0.776c0.351,1.312 1.54,2.224 2.898,2.224c1.358,-0 2.546,-0.912 2.898,-2.224c1.473,-5.497 7.132,-8.764 12.629,-7.291c5.497,1.473 8.764,7.132 7.291,12.629c-0.351,1.312 0.222,2.696 1.398,3.375c1.176,0.679 2.661,0.483 3.621,-0.477c4.025,-4.024 10.559,-4.024 14.584,-0c4.024,4.024 4.024,10.559 -0,14.583c-0.961,0.96 -1.156,2.445 -0.477,3.621c0.679,1.176 2.063,1.75 3.374,1.398c5.498,-1.473 11.157,1.794 12.63,7.292c1.473,5.497 -1.795,11.156 -7.292,12.629c-1.311,0.351 -2.223,1.54 -2.223,2.898c-0,1.358 0.912,2.546 2.223,2.898c5.497,1.473 8.765,7.132 7.292,12.629c-1.473,5.497 -7.132,8.764 -12.63,7.291c-1.311,-0.351 -2.695,0.222 -3.374,1.398c-0.679,1.176 -0.484,2.661 0.477,3.621c4.024,4.025 4.024,10.559 -0,14.584c-4.025,4.024 -10.559,4.024 -14.584,-0c-0.96,-0.961 -2.445,-1.156 -3.621,-0.477c-1.176,0.679 -1.749,2.063 -1.398,3.374c1.473,5.498 -1.794,11.157 -7.291,12.63c-5.497,1.473 -11.156,-1.795 -12.629,-7.292c-0.352,-1.311 -1.54,-2.223 -2.898,-2.223c-1.358,-0 -2.547,0.912 -2.898,2.223c-1.473,5.497 -7.132,8.765 -12.629,7.292c-5.498,-1.473 -8.765,-7.132 -7.292,-12.63c0.352,-1.311 -0.222,-2.695 -1.398,-3.374c-1.176,-0.679 -2.661,-0.484 -3.621,0.477c-4.024,4.024 -10.559,4.024 -14.583,-0c-4.024,-4.025 -4.024,-10.559 -0,-14.584c0.96,-0.96 1.156,-2.445 0.477,-3.621c-0.679,-1.176 -2.063,-1.749 -3.375,-1.398c-5.497,1.473 -11.156,-1.794 -12.629,-7.291c-1.473,-5.497 1.794,-11.156 7.291,-12.629c1.312,-0.352 2.224,-1.54 2.224,-2.898c-0,-1.358 -0.912,-2.547 -2.224,-2.898c-5.497,-1.473 -8.764,-7.132 -7.291,-12.629c1.473,-5.498 7.132,-8.765 12.629,-7.292c1.312,0.352 2.696,-0.222 3.375,-1.398c0.679,-1.176 0.483,-2.661 -0.477,-3.621c-4.024,-4.024 -4.024,-10.559 -0,-14.583c4.024,-4.024 10.559,-4.024 14.583,-0c0.96,0.96 2.445,1.156 3.621,0.477c1.176,-0.679 1.75,-2.063 1.398,-3.375c-1.473,-5.497 1.794,-11.156 7.292,-12.629c5.497,-1.473 11.156,1.794 12.629,7.291Z"/></g><g id="Eye"><ellipse cx="109.986" cy="102.607" rx="37.496" ry="37.669" style="fill:#d0d0d0;"/><path d="M109.986,64.938c20.694,0 37.496,16.879 37.496,37.669c-0,20.79 -16.802,37.669 -37.496,37.669c-20.695,0 -37.496,-16.879 -37.496,-37.669c-0,-20.79 16.801,-37.669 37.496,-37.669Zm-0,3c19.042,0 34.496,15.539 34.496,34.669c-0,19.131 -15.454,34.669 -34.496,34.669c-19.043,0 -34.496,-15.538 -34.496,-34.669c-0,-19.13 15.453,-34.669 34.496,-34.669Z"/><ellipse cx="109.986" cy="102.607" rx="21.25" ry="21.348" style="fill:#990c4e;"/><ellipse cx="109.986" cy="102.607" rx="6.788" ry="6.819"/><ellipse cx="109.986" cy="81.26" rx="8.117" ry="8.154" style="fill:#fff;fill-opacity:0.75;"/></g><g id="Mouth"><path d="M95.356,139.531c-1.188,-0.552 -2.593,-0.325 -3.547,0.574c-0.953,0.898 -1.263,2.287 -0.782,3.506c2.893,7.655 10.295,13.097 18.959,13.097c8.663,-0 16.065,-5.442 18.971,-13.092c0.483,-1.224 0.171,-2.618 -0.786,-3.521c-0.958,-0.902 -2.368,-1.13 -3.562,-0.577c-4.189,1.794 -9.268,2.989 -14.623,2.989c-5.356,-0 -10.435,-1.195 -14.63,-2.976Z"/><g><path d="M99.277,145.467l2.015,5.852l-4.03,0l2.015,-5.852Z" style="fill:#797691;"/><path d="M121.348,145.467l2.015,5.852l-4.03,0l2.015,-5.852Z" style="fill:#797691;"/><path d="M109.501,148.977l2.016,5.852l-4.031,0l2.015,-5.852Z" style="fill:#797691;"/><path d="M106.862,150.89l-2.015,-5.853l4.03,0l-2.015,5.853Z" style="fill:#797691;"/><path d="M113.078,150.89l-2.015,-5.853l4.03,0l-2.015,5.853Z" style="fill:#797691;"/><path d="M118.605,149.522l-2.015,-5.852l4.03,-0l-2.015,5.852Z" style="fill:#797691;"/><path d="M101.877,149.522l-2.015,-5.852l4.03,-0l-2.015,5.852Z" style="fill:#797691;"/><path d="M103.89,147.498l2.016,5.852l-4.031,0l2.015,-5.852Z" style="fill:#797691;"/><path d="M115.901,147.498l2.015,5.852l-4.031,0l2.016,-5.852Z" style="fill:#797691;"/></g><path d="M95.356,139.531c-1.188,-0.552 -2.593,-0.325 -3.547,0.574c-0.953,0.898 -1.263,2.287 -0.782,3.506c2.893,7.655 10.295,13.097 18.959,13.097c8.663,-0 16.065,-5.442 18.971,-13.092c0.483,-1.224 0.171,-2.618 -0.786,-3.521c-0.958,-0.902 -2.368,-1.13 -3.562,-0.577c-4.189,1.794 -9.268,2.989 -14.623,2.989c-5.356,-0 -10.435,-1.195 -14.63,-2.976Zm29.108,4.352c-2.709,5.24 -8.178,8.825 -14.478,8.825c-6.292,-0 -11.755,-3.576 -14.457,-8.807c4.279,1.586 9.25,2.606 14.457,2.606c5.217,-0 10.198,-1.024 14.478,-2.624Z" style="fill:#cf1749;"/></g></g></svg>